<svg width="24" height="24" fill="none" xmlns="http://www.w3.org/2000/svg"><path opacity=".01" fill="#fff" d="M0 0h24v24H0z"/><path fill-rule="evenodd" clip-rule="evenodd" d="M20.4 5.7v12.644c0 .554-.204 1.035-.612 1.444a2.025 2.025 0 01-1.488.612H5.7c-.583 0-1.08-.204-1.488-.612-.408-.409-.612-.89-.612-1.444V5.7c0-.583.204-1.08.612-1.487A2.025 2.025 0 015.7 3.6h12.6c.583 0 1.08.204 1.488.613.408.408.612.904.612 1.487zm-5.95 3.85c-.67-.7-1.487-1.05-2.45-1.05-.963 0-1.787.343-2.472 1.028C8.843 10.214 8.5 11.038 8.5 12c0 .963.343 1.787 1.028 2.472S11.038 15.5 12 15.5c.963 0 1.786-.343 2.472-1.028.685-.685 1.028-1.51 1.028-2.472s-.35-1.78-1.05-2.45zM19 7.8V5.7c0-.467-.233-.7-.7-.7h-2.1c-.467 0-.7.233-.7.7v2.1c0 .467.233.7.7.7h2.1c.467 0 .7-.233.7-.7zM18.344 19c.437 0 .656-.233.656-.7v-7.7h-2.275c.117.38.175.846.175 1.4 0 1.37-.467 2.523-1.4 3.456-.963.963-2.13 1.444-3.5 1.444-1.342 0-2.494-.481-3.456-1.444C7.58 14.494 7.1 13.342 7.1 12c0-.437.073-.904.219-1.4H5v7.7c0 .204.073.372.219.503.146.131.32.197.525.197h12.6z" fill="#fff"/></svg>