<svg width="24" height="24" fill="none" xmlns="http://www.w3.org/2000/svg"><path opacity=".01" fill="#fff" d="M0 0h24v24H0z"/><path fill-rule="evenodd" clip-rule="evenodd" d="M21 6.754c-.458.712-1.068 1.348-1.83 1.907v.458c0 2.67-.96 5.09-2.88 7.265-1.92 2.173-4.468 3.26-7.646 3.26-2.034 0-3.915-.56-5.644-1.678.407.05.7.076.877.076 1.704 0 3.229-.534 4.576-1.601a3.712 3.712 0 01-2.135-.744 3.493 3.493 0 01-1.297-1.811c.305.05.534.076.687.076.254 0 .584-.051.991-.153a3.727 3.727 0 01-2.116-1.277 3.515 3.515 0 01-.858-2.346v-.038c.559.305 1.118.458 1.678.458-1.094-.712-1.64-1.742-1.64-3.09 0-.635.165-1.245.495-1.83 1.958 2.416 4.488 3.7 7.59 3.852-.051-.178-.077-.457-.077-.839 0-1.042.356-1.92 1.068-2.631C13.551 5.356 14.428 5 15.47 5c1.043 0 1.932.394 2.67 1.182.762-.127 1.55-.432 2.364-.915-.254.89-.8 1.576-1.64 2.06A6.299 6.299 0 0021 6.753z" fill="#fff"/></svg>